<mxfile host="Electron" agent="Mozilla/5.0 (Windows NT 10.0; Win64; x64) AppleWebKit/537.36 (KHTML, like Gecko) draw.io/24.7.17 Chrome/128.0.6613.36 Electron/32.0.1 Safari/537.36" version="24.7.17">
  <diagram name="Seite-1" id="WifD2P573WgV2_WGgGjV">
    <mxGraphModel dx="1050" dy="621" grid="1" gridSize="10" guides="1" tooltips="1" connect="1" arrows="1" fold="1" page="1" pageScale="1" pageWidth="827" pageHeight="1169" math="0" shadow="0">
      <root>
        <mxCell id="0" />
        <mxCell id="1" parent="0" />
        <mxCell id="FRGwCrSziSRg-4INfOAW-1" value="Computer" style="swimlane;whiteSpace=wrap;html=1;startSize=23;fontColor=#888888;fillColor=none;strokeColor=#888888;" vertex="1" parent="1">
          <mxGeometry x="10" y="10" width="680" height="130" as="geometry" />
        </mxCell>
        <mxCell id="FRGwCrSziSRg-4INfOAW-6" value="Top Image&lt;div&gt;&lt;font style=&quot;font-size: 8px;&quot;&gt;(e.g. top.png)&lt;/font&gt;&lt;/div&gt;" style="rounded=1;whiteSpace=wrap;html=1;fillColor=#dae8fc;strokeColor=#6c8ebf;" vertex="1" parent="FRGwCrSziSRg-4INfOAW-1">
          <mxGeometry x="10" y="30" width="130" height="40" as="geometry" />
        </mxCell>
        <mxCell id="FRGwCrSziSRg-4INfOAW-7" value="(24x) Window Images&lt;div&gt;&lt;font style=&quot;font-size: 8px;&quot;&gt;(e.g. day1.png, day2.png, ...)&lt;/font&gt;&lt;/div&gt;" style="rounded=1;whiteSpace=wrap;html=1;fillColor=#dae8fc;strokeColor=#6c8ebf;" vertex="1" parent="FRGwCrSziSRg-4INfOAW-1">
          <mxGeometry x="10" y="80" width="130" height="40" as="geometry" />
        </mxCell>
        <mxCell id="FRGwCrSziSRg-4INfOAW-8" value="&lt;font style=&quot;font-size: 16px;&quot;&gt;Superperforator&lt;/font&gt;&lt;div style=&quot;font-size: 16px;&quot;&gt;&lt;font style=&quot;font-size: 16px;&quot;&gt;&lt;br&gt;&lt;/font&gt;&lt;/div&gt;&lt;div style=&quot;font-size: 16px;&quot;&gt;&lt;br&gt;&lt;/div&gt;" style="shape=process;whiteSpace=wrap;html=1;backgroundOutline=1;fillColor=#d5e8d4;strokeColor=#82b366;fontColor=#3D5430;size=0.05;" vertex="1" parent="FRGwCrSziSRg-4INfOAW-1">
          <mxGeometry x="170" y="30" width="200" height="90" as="geometry" />
        </mxCell>
        <mxCell id="FRGwCrSziSRg-4INfOAW-9" style="edgeStyle=orthogonalEdgeStyle;rounded=0;orthogonalLoop=1;jettySize=auto;html=1;exitX=1;exitY=0.5;exitDx=0;exitDy=0;fillColor=#f5f5f5;strokeColor=#666666;" edge="1" parent="FRGwCrSziSRg-4INfOAW-1" source="FRGwCrSziSRg-4INfOAW-6">
          <mxGeometry relative="1" as="geometry">
            <mxPoint x="170" y="50" as="targetPoint" />
          </mxGeometry>
        </mxCell>
        <mxCell id="FRGwCrSziSRg-4INfOAW-10" style="edgeStyle=orthogonalEdgeStyle;rounded=0;orthogonalLoop=1;jettySize=auto;html=1;exitX=1;exitY=0.5;exitDx=0;exitDy=0;entryX=-0.002;entryY=0.78;entryDx=0;entryDy=0;entryPerimeter=0;fillColor=#f5f5f5;strokeColor=#666666;" edge="1" parent="FRGwCrSziSRg-4INfOAW-1" source="FRGwCrSziSRg-4INfOAW-7" target="FRGwCrSziSRg-4INfOAW-8">
          <mxGeometry relative="1" as="geometry">
            <mxPoint x="160" y="100" as="targetPoint" />
          </mxGeometry>
        </mxCell>
        <mxCell id="FRGwCrSziSRg-4INfOAW-11" value="&lt;font style=&quot;font-size: 8px;&quot;&gt;* Magic *&lt;/font&gt;&lt;div style=&quot;font-size: 6px;&quot;&gt;&lt;font style=&quot;font-size: 6px;&quot;&gt;// TODO&lt;/font&gt;&lt;/div&gt;" style="shape=process;whiteSpace=wrap;html=1;backgroundOutline=1;fillColor=none;fontColor=#888888;strokeColor=#666666;" vertex="1" parent="FRGwCrSziSRg-4INfOAW-1">
          <mxGeometry x="240" y="80" width="60" height="30" as="geometry" />
        </mxCell>
        <mxCell id="FRGwCrSziSRg-4INfOAW-13" value="" style="endArrow=classic;html=1;rounded=0;entryX=0;entryY=0.5;entryDx=0;entryDy=0;fontColor=#888888;strokeColor=#666666;endSize=5;fillColor=#f5f5f5;" edge="1" parent="FRGwCrSziSRg-4INfOAW-1" target="FRGwCrSziSRg-4INfOAW-11">
          <mxGeometry width="50" height="50" relative="1" as="geometry">
            <mxPoint x="180" y="95" as="sourcePoint" />
            <mxPoint x="380" y="40" as="targetPoint" />
          </mxGeometry>
        </mxCell>
        <mxCell id="FRGwCrSziSRg-4INfOAW-14" value="" style="endArrow=classic;html=1;rounded=0;entryX=0;entryY=0.5;entryDx=0;entryDy=0;fontColor=#888888;strokeColor=#666666;endSize=5;fillColor=#f5f5f5;" edge="1" parent="FRGwCrSziSRg-4INfOAW-1">
          <mxGeometry width="50" height="50" relative="1" as="geometry">
            <mxPoint x="300" y="94.8" as="sourcePoint" />
            <mxPoint x="360" y="94.8" as="targetPoint" />
          </mxGeometry>
        </mxCell>
        <mxCell id="FRGwCrSziSRg-4INfOAW-27" style="edgeStyle=orthogonalEdgeStyle;rounded=0;orthogonalLoop=1;jettySize=auto;html=1;exitX=1;exitY=0.5;exitDx=0;exitDy=0;fillColor=#f5f5f5;strokeColor=#666666;" edge="1" parent="FRGwCrSziSRg-4INfOAW-1" source="FRGwCrSziSRg-4INfOAW-15">
          <mxGeometry relative="1" as="geometry">
            <mxPoint x="700" y="50.19047619047615" as="targetPoint" />
          </mxGeometry>
        </mxCell>
        <mxCell id="FRGwCrSziSRg-4INfOAW-15" value="&lt;div&gt;&lt;font style=&quot;&quot;&gt;Printer File&lt;/font&gt;&lt;/div&gt;&lt;div&gt;&lt;font style=&quot;font-size: 8px;&quot;&gt;(e.g. christmas.pdf, ...)&lt;/font&gt;&lt;/div&gt;" style="rounded=1;whiteSpace=wrap;html=1;fillColor=#dae8fc;strokeColor=#6c8ebf;" vertex="1" parent="FRGwCrSziSRg-4INfOAW-1">
          <mxGeometry x="400" y="30" width="120" height="40" as="geometry" />
        </mxCell>
        <mxCell id="FRGwCrSziSRg-4INfOAW-16" value="&lt;div&gt;&lt;font style=&quot;&quot;&gt;Perforation File&lt;/font&gt;&lt;/div&gt;&lt;div&gt;&lt;font style=&quot;font-size: 8px;&quot;&gt;(e.g. perf.gcode, laser.nc, ...)&lt;/font&gt;&lt;/div&gt;" style="rounded=1;whiteSpace=wrap;html=1;fillColor=#dae8fc;strokeColor=#6c8ebf;" vertex="1" parent="FRGwCrSziSRg-4INfOAW-1">
          <mxGeometry x="400" y="80" width="120" height="40" as="geometry" />
        </mxCell>
        <mxCell id="FRGwCrSziSRg-4INfOAW-17" style="edgeStyle=orthogonalEdgeStyle;rounded=0;orthogonalLoop=1;jettySize=auto;html=1;exitX=1;exitY=0.25;exitDx=0;exitDy=0;entryX=0.001;entryY=0.586;entryDx=0;entryDy=0;entryPerimeter=0;fillColor=#f5f5f5;strokeColor=#666666;" edge="1" parent="FRGwCrSziSRg-4INfOAW-1">
          <mxGeometry relative="1" as="geometry">
            <mxPoint x="370" y="49.52999999999997" as="sourcePoint" />
            <mxPoint x="400.12" y="50.47" as="targetPoint" />
          </mxGeometry>
        </mxCell>
        <mxCell id="FRGwCrSziSRg-4INfOAW-18" style="edgeStyle=orthogonalEdgeStyle;rounded=0;orthogonalLoop=1;jettySize=auto;html=1;exitX=1;exitY=0.75;exitDx=0;exitDy=0;entryX=0;entryY=0.438;entryDx=0;entryDy=0;entryPerimeter=0;fillColor=#f5f5f5;strokeColor=#666666;" edge="1" parent="FRGwCrSziSRg-4INfOAW-1">
          <mxGeometry relative="1" as="geometry">
            <mxPoint x="370" y="99.93999999999997" as="sourcePoint" />
            <mxPoint x="400" y="99.96000000000001" as="targetPoint" />
          </mxGeometry>
        </mxCell>
        <mxCell id="FRGwCrSziSRg-4INfOAW-19" value="GCode Sender&lt;div&gt;&lt;font style=&quot;font-size: 8px;&quot;&gt;(e.g. Universal GCode Sender, Estlcam, ...)&lt;/font&gt;&lt;/div&gt;" style="shape=process;whiteSpace=wrap;html=1;backgroundOutline=1;fillColor=#f5f5f5;fontColor=#888888;strokeColor=#666666;" vertex="1" parent="FRGwCrSziSRg-4INfOAW-1">
          <mxGeometry x="550" y="60" width="120" height="55" as="geometry" />
        </mxCell>
        <mxCell id="FRGwCrSziSRg-4INfOAW-20" style="edgeStyle=orthogonalEdgeStyle;rounded=0;orthogonalLoop=1;jettySize=auto;html=1;exitX=1;exitY=0.5;exitDx=0;exitDy=0;fillColor=#f5f5f5;strokeColor=#666666;" edge="1" parent="FRGwCrSziSRg-4INfOAW-1" source="FRGwCrSziSRg-4INfOAW-16">
          <mxGeometry relative="1" as="geometry">
            <mxPoint x="550" y="100" as="targetPoint" />
          </mxGeometry>
        </mxCell>
        <mxCell id="FRGwCrSziSRg-4INfOAW-2" value="Laser Cutter/Plotter/CNC" style="swimlane;whiteSpace=wrap;html=1;startSize=23;strokeColor=#888888;fontColor=#888888;fillColor=none;" vertex="1" parent="1">
          <mxGeometry x="880" y="10" width="160" height="130" as="geometry" />
        </mxCell>
        <mxCell id="FRGwCrSziSRg-4INfOAW-3" value="Control Board&lt;div&gt;&lt;font style=&quot;font-size: 8px;&quot;&gt;(e.g. Marlin, GRBL, ...)&lt;/font&gt;&lt;/div&gt;" style="shape=process;whiteSpace=wrap;html=1;backgroundOutline=1;fontColor=#888888;strokeColor=#666666;fillColor=#f5f5f5;" vertex="1" parent="FRGwCrSziSRg-4INfOAW-2">
          <mxGeometry x="14" y="30" width="120" height="50" as="geometry" />
        </mxCell>
        <mxCell id="FRGwCrSziSRg-4INfOAW-5" style="edgeStyle=orthogonalEdgeStyle;rounded=0;orthogonalLoop=1;jettySize=auto;html=1;exitX=1;exitY=0.5;exitDx=0;exitDy=0;entryX=1;entryY=0.5;entryDx=0;entryDy=0;endSize=5;strokeColor=#888888;dashed=1;" edge="1" parent="FRGwCrSziSRg-4INfOAW-2" source="FRGwCrSziSRg-4INfOAW-4" target="FRGwCrSziSRg-4INfOAW-3">
          <mxGeometry relative="1" as="geometry">
            <Array as="points">
              <mxPoint x="147" y="105" />
              <mxPoint x="147" y="55" />
            </Array>
          </mxGeometry>
        </mxCell>
        <mxCell id="FRGwCrSziSRg-4INfOAW-4" value="SD Card Reader" style="rounded=0;whiteSpace=wrap;html=1;strokeColor=#666666;fontColor=#888888;dashed=1;fillColor=#f5f5f5;" vertex="1" parent="FRGwCrSziSRg-4INfOAW-2">
          <mxGeometry x="14" y="90" width="120" height="30" as="geometry" />
        </mxCell>
        <mxCell id="FRGwCrSziSRg-4INfOAW-21" style="edgeStyle=orthogonalEdgeStyle;rounded=0;orthogonalLoop=1;jettySize=auto;html=1;exitX=1;exitY=0.5;exitDx=0;exitDy=0;entryX=0;entryY=0.5;entryDx=0;entryDy=0;fillColor=#f5f5f5;strokeColor=#666666;" edge="1" parent="1" source="FRGwCrSziSRg-4INfOAW-19" target="FRGwCrSziSRg-4INfOAW-3">
          <mxGeometry relative="1" as="geometry">
            <Array as="points">
              <mxPoint x="870" y="105" />
              <mxPoint x="870" y="65" />
            </Array>
          </mxGeometry>
        </mxCell>
        <mxCell id="FRGwCrSziSRg-4INfOAW-22" style="edgeStyle=orthogonalEdgeStyle;rounded=0;orthogonalLoop=1;jettySize=auto;html=1;exitX=1;exitY=0.5;exitDx=0;exitDy=0;entryX=0;entryY=0.5;entryDx=0;entryDy=0;fillColor=#f5f5f5;strokeColor=#666666;dashed=1;" edge="1" parent="1" source="FRGwCrSziSRg-4INfOAW-16" target="FRGwCrSziSRg-4INfOAW-4">
          <mxGeometry relative="1" as="geometry">
            <mxPoint x="710" y="160" as="targetPoint" />
            <Array as="points">
              <mxPoint x="540" y="110" />
              <mxPoint x="540" y="130" />
              <mxPoint x="870" y="130" />
              <mxPoint x="870" y="115" />
            </Array>
          </mxGeometry>
        </mxCell>
        <mxCell id="FRGwCrSziSRg-4INfOAW-23" value="(Color) Printer" style="swimlane;whiteSpace=wrap;html=1;fillColor=none;fontColor=#888888;strokeColor=#666666;" vertex="1" parent="1">
          <mxGeometry x="710" y="10" width="150" height="80" as="geometry" />
        </mxCell>
        <mxCell id="FRGwCrSziSRg-4INfOAW-26" value="* Magic that rarely works *" style="shape=process;whiteSpace=wrap;html=1;backgroundOutline=1;fontColor=#888888;strokeColor=#666666;fillColor=#f5f5f5;" vertex="1" parent="FRGwCrSziSRg-4INfOAW-23">
          <mxGeometry x="15" y="30" width="120" height="40" as="geometry" />
        </mxCell>
      </root>
    </mxGraphModel>
  </diagram>
</mxfile>
